<svg width="117" height="31" viewBox="0 0 117 31" fill="none" xmlns="http://www.w3.org/2000/svg">
<path d="M8.99612 24.352C7.39612 24.352 5.94546 24 4.64412 23.296C3.34279 22.592 2.31879 21.6213 1.57212 20.384C0.825457 19.1467 0.452123 17.76 0.452123 16.224C0.452123 14.6667 0.825457 13.28 1.57212 12.064C2.34012 10.8267 3.37479 9.856 4.67612 9.152C5.97746 8.448 7.43879 8.096 9.06012 8.096C10.2761 8.096 11.3855 8.30933 12.3881 8.736C13.4121 9.14133 14.3188 9.76 15.1081 10.592L11.9721 13.728C11.6095 13.3227 11.1828 13.024 10.6921 12.832C10.2228 12.64 9.67879 12.544 9.06012 12.544C8.35612 12.544 7.72679 12.704 7.17212 13.024C6.63879 13.3227 6.21212 13.7493 5.89212 14.304C5.59346 14.8373 5.44412 15.4667 5.44412 16.192C5.44412 16.9173 5.59346 17.5573 5.89212 18.112C6.21212 18.6667 6.64946 19.104 7.20412 19.424C7.75879 19.744 8.37746 19.904 9.06012 19.904C9.70012 19.904 10.2655 19.7973 10.7561 19.584C11.2681 19.3493 11.7055 19.0293 12.0681 18.624L15.1721 21.76C14.3615 22.6133 13.4441 23.264 12.4201 23.712C11.3961 24.1387 10.2548 24.352 8.99612 24.352ZM26.9831 24V15.136C26.9831 14.3253 26.7271 13.6747 26.2151 13.184C25.7245 12.672 25.0951 12.416 24.3271 12.416C23.7938 12.416 23.3245 12.5333 22.9191 12.768C22.5138 12.9813 22.1938 13.3013 21.9591 13.728C21.7245 14.1333 21.6071 14.6027 21.6071 15.136L19.7191 14.208C19.7191 12.992 19.9751 11.9253 20.4871 11.008C20.9991 10.0907 21.7138 9.38667 22.6311 8.896C23.5485 8.384 24.6045 8.128 25.7991 8.128C27.0151 8.128 28.0818 8.384 28.9991 8.896C29.9165 9.38667 30.6205 10.08 31.1111 10.976C31.6231 11.8507 31.8791 12.8747 31.8791 14.048V24H26.9831ZM16.7111 24V0.768H21.6071V24H16.7111ZM40.8796 24.32C39.4503 24.32 38.1703 23.968 37.0396 23.264C35.9303 22.56 35.045 21.6 34.3836 20.384C33.7436 19.168 33.4236 17.7813 33.4236 16.224C33.4236 14.6667 33.7436 13.28 34.3836 12.064C35.045 10.848 35.9303 9.888 37.0396 9.184C38.1703 8.48 39.4503 8.128 40.8796 8.128C41.925 8.128 42.8636 8.33067 43.6956 8.736C44.549 9.14133 45.2423 9.70667 45.7756 10.432C46.309 11.136 46.6076 11.9467 46.6716 12.864V19.584C46.6076 20.5013 46.309 21.3227 45.7756 22.048C45.2636 22.752 44.581 23.3067 43.7276 23.712C42.8743 24.1173 41.925 24.32 40.8796 24.32ZM41.8716 19.904C42.917 19.904 43.7596 19.5627 44.3996 18.88C45.0396 18.176 45.3596 17.2907 45.3596 16.224C45.3596 15.4987 45.2103 14.8587 44.9116 14.304C44.6343 13.7493 44.229 13.3227 43.6956 13.024C43.1836 12.704 42.5863 12.544 41.9036 12.544C41.221 12.544 40.613 12.704 40.0796 13.024C39.5676 13.3227 39.1516 13.7493 38.8316 14.304C38.533 14.8587 38.3836 15.4987 38.3836 16.224C38.3836 16.928 38.533 17.5573 38.8316 18.112C39.1303 18.6667 39.5463 19.104 40.0796 19.424C40.613 19.744 41.2103 19.904 41.8716 19.904ZM45.1676 24V19.808L45.9036 16.032L45.1676 12.256V8.448H49.9676V24H45.1676ZM54.9829 24V2.016H59.8789V24H54.9829ZM51.4629 12.608V8.448H63.3989V12.608H51.4629ZM72.1801 24.32C70.7508 24.32 69.4601 23.9787 68.3081 23.296C67.1775 22.6133 66.2815 21.696 65.6201 20.544C64.9588 19.3707 64.6281 18.048 64.6281 16.576C64.6281 15.1253 64.9588 13.8133 65.6201 12.64C66.2815 11.4667 67.1775 10.5387 68.3081 9.856C69.4388 9.152 70.7081 8.8 72.1161 8.8C73.2681 8.8 74.2921 9.024 75.1881 9.472C76.1055 9.89867 76.8521 10.5067 77.4281 11.296C78.0255 12.0853 78.4095 13.024 78.5801 14.112V18.976C78.3881 20.064 77.9935 21.0133 77.3961 21.824C76.8201 22.6133 76.0841 23.232 75.1881 23.68C74.3135 24.1067 73.3108 24.32 72.1801 24.32ZM72.4041 22.784C74.1108 22.784 75.4655 22.2187 76.4681 21.088C77.4921 19.936 78.0041 18.432 78.0041 16.576C78.0041 15.3173 77.7695 14.2293 77.3001 13.312C76.8521 12.3733 76.2015 11.648 75.3481 11.136C74.4948 10.6027 73.5028 10.336 72.3721 10.336C71.1988 10.336 70.1535 10.6027 69.2361 11.136C68.3401 11.6693 67.6255 12.4053 67.0921 13.344C66.5801 14.2827 66.3241 15.3493 66.3241 16.544C66.3241 17.76 66.5801 18.8373 67.0921 19.776C67.6255 20.7147 68.3508 21.4507 69.2681 21.984C70.1855 22.5173 71.2308 22.784 72.4041 22.784ZM77.9401 24V20L78.2921 16.352L77.9401 12.736V9.12H79.5721V24H77.9401ZM91.2814 24.32C90.172 24.32 89.148 24.096 88.2094 23.648C87.292 23.2 86.524 22.5813 85.9054 21.792C85.2867 20.9813 84.8814 20.0427 84.6894 18.976V14.112C84.8814 13.024 85.2867 12.0853 85.9054 11.296C86.5454 10.4853 87.324 9.86667 88.2414 9.44C89.18 9.01333 90.1934 8.8 91.2814 8.8C92.6894 8.8 93.948 9.14133 95.0574 9.824C96.1667 10.5067 97.0414 11.4347 97.6814 12.608C98.3214 13.7813 98.6414 15.104 98.6414 16.576C98.6414 18.048 98.3214 19.3707 97.6814 20.544C97.0414 21.696 96.1667 22.6133 95.0574 23.296C93.948 23.9787 92.6894 24.32 91.2814 24.32ZM90.9934 22.784C92.1667 22.784 93.2014 22.5173 94.0974 21.984C94.9934 21.4507 95.6974 20.7147 96.2094 19.776C96.7214 18.8373 96.9774 17.76 96.9774 16.544C96.9774 15.328 96.7214 14.2507 96.2094 13.312C95.6974 12.3733 94.9934 11.648 94.0974 11.136C93.2227 10.6027 92.22 10.336 91.0894 10.336C89.9374 10.336 88.924 10.6027 88.0494 11.136C87.196 11.648 86.524 12.3733 86.0334 13.312C85.5427 14.2507 85.2974 15.3387 85.2974 16.576C85.2974 17.792 85.532 18.8693 86.0014 19.808C86.492 20.7253 87.164 21.4507 88.0174 21.984C88.892 22.5173 89.884 22.784 90.9934 22.784ZM83.7294 30.304V9.12H85.3614V12.832L84.9774 16.448L85.3614 20.096V30.304H83.7294ZM109.423 24.32C108.313 24.32 107.289 24.096 106.351 23.648C105.433 23.2 104.665 22.5813 104.047 21.792C103.428 20.9813 103.023 20.0427 102.831 18.976V14.112C103.023 13.024 103.428 12.0853 104.047 11.296C104.687 10.4853 105.465 9.86667 106.383 9.44C107.321 9.01333 108.335 8.8 109.423 8.8C110.831 8.8 112.089 9.14133 113.199 9.824C114.308 10.5067 115.183 11.4347 115.823 12.608C116.463 13.7813 116.783 15.104 116.783 16.576C116.783 18.048 116.463 19.3707 115.823 20.544C115.183 21.696 114.308 22.6133 113.199 23.296C112.089 23.9787 110.831 24.32 109.423 24.32ZM109.135 22.784C110.308 22.784 111.343 22.5173 112.239 21.984C113.135 21.4507 113.839 20.7147 114.351 19.776C114.863 18.8373 115.119 17.76 115.119 16.544C115.119 15.328 114.863 14.2507 114.351 13.312C113.839 12.3733 113.135 11.648 112.239 11.136C111.364 10.6027 110.361 10.336 109.231 10.336C108.079 10.336 107.065 10.6027 106.191 11.136C105.337 11.648 104.665 12.3733 104.175 13.312C103.684 14.2507 103.439 15.3387 103.439 16.576C103.439 17.792 103.673 18.8693 104.143 19.808C104.633 20.7253 105.305 21.4507 106.159 21.984C107.033 22.5173 108.025 22.784 109.135 22.784ZM101.871 30.304V9.12H103.503V12.832L103.119 16.448L103.503 20.096V30.304H101.871Z" fill="white"/>
</svg>
